<mxfile host="app.diagrams.net" modified="2020-10-20T12:19:33.852Z" agent="5.0 (Windows NT 10.0; WOW64) AppleWebKit/537.36 (KHTML, like Gecko) Chrome/72.0.3626.81 Safari/537.36 SE 2.X MetaSr 1.0" etag="VSx7vVkzQN5y7c84NZWZ" version="13.8.0" type="github" pages="2">
  <diagram id="URaFRX0wA10-E0mFRyCh" name="Page-1">
    <mxGraphModel dx="1736" dy="906" grid="0" gridSize="10" guides="0" tooltips="1" connect="1" arrows="1" fold="1" page="0" pageScale="1" pageWidth="827" pageHeight="1169" math="0" shadow="0">
      <root>
        <mxCell id="0" />
        <mxCell id="1" parent="0" />
        <mxCell id="pcVTQhZWkRdv3neq5Eh--1" value="before search service" style="whiteSpace=wrap;html=1;dashed=1;rounded=1;" vertex="1" parent="1">
          <mxGeometry x="550" y="30" width="100" height="40" as="geometry" />
        </mxCell>
        <mxCell id="pcVTQhZWkRdv3neq5Eh--3" value="during search service" style="whiteSpace=wrap;html=1;dashed=1;rounded=1;" vertex="1" parent="1">
          <mxGeometry x="550" y="183" width="100" height="40" as="geometry" />
        </mxCell>
        <mxCell id="C0xwAsRnoCJTexPsXbv--5" value="" style="edgeStyle=orthogonalEdgeStyle;rounded=0;orthogonalLoop=1;jettySize=auto;html=1;strokeColor=#000000;fontSize=30;" edge="1" parent="1" source="pcVTQhZWkRdv3neq5Eh--4" target="pcVTQhZWkRdv3neq5Eh--112">
          <mxGeometry relative="1" as="geometry" />
        </mxCell>
        <mxCell id="pcVTQhZWkRdv3neq5Eh--4" value="ranking service&lt;br&gt;(avg1.18s)" style="whiteSpace=wrap;html=1;dashed=1;rounded=1;" vertex="1" parent="1">
          <mxGeometry x="513" y="496" width="100" height="40" as="geometry" />
        </mxCell>
        <mxCell id="pcVTQhZWkRdv3neq5Eh--11" style="edgeStyle=orthogonalEdgeStyle;orthogonalLoop=1;jettySize=auto;html=1;entryX=0;entryY=0.5;entryDx=0;entryDy=0;" edge="1" parent="1" source="pcVTQhZWkRdv3neq5Eh--5" target="pcVTQhZWkRdv3neq5Eh--1">
          <mxGeometry relative="1" as="geometry" />
        </mxCell>
        <mxCell id="pcVTQhZWkRdv3neq5Eh--5" value="user2keywords&lt;br&gt;(1min)" style="whiteSpace=wrap;html=1;dashed=1;fillColor=#d5e8d4;strokeColor=#82b366;rounded=1;" vertex="1" parent="1">
          <mxGeometry x="393" y="30" width="100" height="40" as="geometry" />
        </mxCell>
        <mxCell id="pcVTQhZWkRdv3neq5Eh--8" style="edgeStyle=orthogonalEdgeStyle;orthogonalLoop=1;jettySize=auto;html=1;entryX=0;entryY=0.5;entryDx=0;entryDy=0;" edge="1" parent="1" source="pcVTQhZWkRdv3neq5Eh--6" target="pcVTQhZWkRdv3neq5Eh--3">
          <mxGeometry relative="1" as="geometry" />
        </mxCell>
        <mxCell id="pcVTQhZWkRdv3neq5Eh--6" value="product tag suggestion" style="whiteSpace=wrap;html=1;dashed=1;fillColor=#d5e8d4;strokeColor=#82b366;rounded=1;" vertex="1" parent="1">
          <mxGeometry x="393" y="153" width="100" height="40" as="geometry" />
        </mxCell>
        <mxCell id="pcVTQhZWkRdv3neq5Eh--10" style="edgeStyle=orthogonalEdgeStyle;orthogonalLoop=1;jettySize=auto;html=1;entryX=0;entryY=0.5;entryDx=0;entryDy=0;" edge="1" parent="1" source="pcVTQhZWkRdv3neq5Eh--7" target="pcVTQhZWkRdv3neq5Eh--3">
          <mxGeometry relative="1" as="geometry" />
        </mxCell>
        <mxCell id="pcVTQhZWkRdv3neq5Eh--7" value="contents suggestion" style="whiteSpace=wrap;html=1;dashed=1;fillColor=#d5e8d4;strokeColor=#82b366;rounded=1;" vertex="1" parent="1">
          <mxGeometry x="393" y="223" width="100" height="40" as="geometry" />
        </mxCell>
        <mxCell id="pcVTQhZWkRdv3neq5Eh--14" value="" style="edgeStyle=orthogonalEdgeStyle;orthogonalLoop=1;jettySize=auto;html=1;exitX=1;exitY=0.5;exitDx=0;exitDy=0;" edge="1" parent="1" source="pcVTQhZWkRdv3neq5Eh--110" target="pcVTQhZWkRdv3neq5Eh--4">
          <mxGeometry relative="1" as="geometry">
            <mxPoint x="482" y="516" as="sourcePoint" />
          </mxGeometry>
        </mxCell>
        <mxCell id="pcVTQhZWkRdv3neq5Eh--60" style="edgeStyle=orthogonalEdgeStyle;orthogonalLoop=1;jettySize=auto;html=1;entryX=0;entryY=0.5;entryDx=0;entryDy=0;" edge="1" parent="1" source="pcVTQhZWkRdv3neq5Eh--13" target="pcVTQhZWkRdv3neq5Eh--46">
          <mxGeometry relative="1" as="geometry" />
        </mxCell>
        <mxCell id="pcVTQhZWkRdv3neq5Eh--13" value="recall service&lt;br&gt;(1min)" style="whiteSpace=wrap;html=1;dashed=1;rounded=1;" vertex="1" parent="1">
          <mxGeometry x="51" y="664" width="100" height="40" as="geometry" />
        </mxCell>
        <mxCell id="pcVTQhZWkRdv3neq5Eh--29" value="" style="edgeStyle=orthogonalEdgeStyle;orthogonalLoop=1;jettySize=auto;html=1;" edge="1" parent="1" source="pcVTQhZWkRdv3neq5Eh--19" target="pcVTQhZWkRdv3neq5Eh--20">
          <mxGeometry relative="1" as="geometry" />
        </mxCell>
        <mxCell id="pcVTQhZWkRdv3neq5Eh--19" value="user2item (23min)" style="whiteSpace=wrap;html=1;dashed=1;rounded=1;" vertex="1" parent="1">
          <mxGeometry x="-130" y="30" width="100" height="40" as="geometry" />
        </mxCell>
        <mxCell id="pcVTQhZWkRdv3neq5Eh--30" value="" style="edgeStyle=orthogonalEdgeStyle;orthogonalLoop=1;jettySize=auto;html=1;" edge="1" parent="1" source="pcVTQhZWkRdv3neq5Eh--20" target="pcVTQhZWkRdv3neq5Eh--23">
          <mxGeometry relative="1" as="geometry" />
        </mxCell>
        <mxCell id="pcVTQhZWkRdv3neq5Eh--20" value="item2item (30min)" style="whiteSpace=wrap;html=1;dashed=1;rounded=1;" vertex="1" parent="1">
          <mxGeometry y="30" width="100" height="40" as="geometry" />
        </mxCell>
        <mxCell id="pcVTQhZWkRdv3neq5Eh--34" value="" style="edgeStyle=orthogonalEdgeStyle;orthogonalLoop=1;jettySize=auto;html=1;" edge="1" parent="1" source="pcVTQhZWkRdv3neq5Eh--23" target="pcVTQhZWkRdv3neq5Eh--33">
          <mxGeometry relative="1" as="geometry" />
        </mxCell>
        <mxCell id="pcVTQhZWkRdv3neq5Eh--23" value="item2tag(1min)" style="whiteSpace=wrap;html=1;dashed=1;rounded=1;" vertex="1" parent="1">
          <mxGeometry x="130" y="30" width="100" height="40" as="geometry" />
        </mxCell>
        <mxCell id="pcVTQhZWkRdv3neq5Eh--31" value="" style="edgeStyle=orthogonalEdgeStyle;orthogonalLoop=1;jettySize=auto;html=1;" edge="1" parent="1" source="pcVTQhZWkRdv3neq5Eh--26" target="pcVTQhZWkRdv3neq5Eh--20">
          <mxGeometry relative="1" as="geometry" />
        </mxCell>
        <mxCell id="pcVTQhZWkRdv3neq5Eh--26" value="&lt;span style=&quot;color: rgb(0 , 0 , 0) ; font-family: &amp;#34;helvetica&amp;#34; ; font-size: 12px ; font-style: normal ; font-weight: 400 ; letter-spacing: normal ; text-align: center ; text-indent: 0px ; text-transform: none ; word-spacing: 0px ; background-color: rgb(248 , 249 , 250) ; display: inline ; float: none&quot;&gt;item embedding&lt;/span&gt;" style="shape=parallelogram;perimeter=parallelogramPerimeter;whiteSpace=wrap;html=1;fixedSize=1;dashed=1;rounded=1;" vertex="1" parent="1">
          <mxGeometry x="-10" y="-40" width="120" height="40" as="geometry" />
        </mxCell>
        <mxCell id="pcVTQhZWkRdv3neq5Eh--28" value="" style="edgeStyle=orthogonalEdgeStyle;orthogonalLoop=1;jettySize=auto;html=1;" edge="1" parent="1" target="pcVTQhZWkRdv3neq5Eh--19">
          <mxGeometry relative="1" as="geometry">
            <mxPoint x="-160" y="50" as="sourcePoint" />
          </mxGeometry>
        </mxCell>
        <mxCell id="pcVTQhZWkRdv3neq5Eh--27" value="open_id" style="whiteSpace=wrap;html=1;dashed=1;fillColor=#e1d5e7;strokeColor=#9673a6;rounded=1;" vertex="1" parent="1">
          <mxGeometry x="-260" y="30" width="100" height="40" as="geometry" />
        </mxCell>
        <mxCell id="pcVTQhZWkRdv3neq5Eh--35" value="" style="edgeStyle=orthogonalEdgeStyle;orthogonalLoop=1;jettySize=auto;html=1;" edge="1" parent="1" source="pcVTQhZWkRdv3neq5Eh--33" target="pcVTQhZWkRdv3neq5Eh--5">
          <mxGeometry relative="1" as="geometry" />
        </mxCell>
        <mxCell id="pcVTQhZWkRdv3neq5Eh--33" value="tag2keyword&lt;br&gt;(1min)" style="whiteSpace=wrap;html=1;dashed=1;rounded=1;" vertex="1" parent="1">
          <mxGeometry x="261" y="30" width="100" height="40" as="geometry" />
        </mxCell>
        <mxCell id="pcVTQhZWkRdv3neq5Eh--38" value="" style="edgeStyle=orthogonalEdgeStyle;orthogonalLoop=1;jettySize=auto;html=1;" edge="1" parent="1" source="pcVTQhZWkRdv3neq5Eh--37" target="pcVTQhZWkRdv3neq5Eh--23">
          <mxGeometry relative="1" as="geometry" />
        </mxCell>
        <mxCell id="pcVTQhZWkRdv3neq5Eh--37" value="&lt;span style=&quot;color: rgb(0 , 0 , 0) ; font-family: &amp;#34;helvetica&amp;#34; ; font-size: 12px ; font-style: normal ; font-weight: 400 ; letter-spacing: normal ; text-align: center ; text-indent: 0px ; text-transform: none ; word-spacing: 0px ; background-color: rgb(248 , 249 , 250) ; display: inline ; float: none&quot;&gt;item feature&lt;/span&gt;" style="shape=parallelogram;perimeter=parallelogramPerimeter;whiteSpace=wrap;html=1;fixedSize=1;dashed=1;rounded=1;" vertex="1" parent="1">
          <mxGeometry x="120" y="-40" width="120" height="40" as="geometry" />
        </mxCell>
        <mxCell id="pcVTQhZWkRdv3neq5Eh--40" value="" style="edgeStyle=orthogonalEdgeStyle;orthogonalLoop=1;jettySize=auto;html=1;" edge="1" parent="1" source="pcVTQhZWkRdv3neq5Eh--39" target="pcVTQhZWkRdv3neq5Eh--19">
          <mxGeometry relative="1" as="geometry" />
        </mxCell>
        <mxCell id="pcVTQhZWkRdv3neq5Eh--39" value="&lt;font face=&quot;helvetica&quot;&gt;user behavior&lt;/font&gt;" style="shape=parallelogram;perimeter=parallelogramPerimeter;whiteSpace=wrap;html=1;fixedSize=1;dashed=1;rounded=1;" vertex="1" parent="1">
          <mxGeometry x="-140" y="-40" width="120" height="40" as="geometry" />
        </mxCell>
        <mxCell id="pcVTQhZWkRdv3neq5Eh--105" value="" style="edgeStyle=orthogonalEdgeStyle;orthogonalLoop=1;jettySize=auto;html=1;" edge="1" parent="1" source="pcVTQhZWkRdv3neq5Eh--42" target="pcVTQhZWkRdv3neq5Eh--104">
          <mxGeometry relative="1" as="geometry" />
        </mxCell>
        <mxCell id="pcVTQhZWkRdv3neq5Eh--42" value="open_id" style="whiteSpace=wrap;html=1;dashed=1;fillColor=#e1d5e7;strokeColor=#9673a6;rounded=1;" vertex="1" parent="1">
          <mxGeometry x="130" y="223" width="100" height="40" as="geometry" />
        </mxCell>
        <mxCell id="pcVTQhZWkRdv3neq5Eh--107" style="edgeStyle=orthogonalEdgeStyle;orthogonalLoop=1;jettySize=auto;html=1;entryX=0;entryY=0.5;entryDx=0;entryDy=0;" edge="1" parent="1" source="pcVTQhZWkRdv3neq5Eh--43" target="pcVTQhZWkRdv3neq5Eh--98">
          <mxGeometry relative="1" as="geometry" />
        </mxCell>
        <mxCell id="pcVTQhZWkRdv3neq5Eh--108" style="edgeStyle=orthogonalEdgeStyle;orthogonalLoop=1;jettySize=auto;html=1;entryX=0;entryY=0.5;entryDx=0;entryDy=0;" edge="1" parent="1" source="pcVTQhZWkRdv3neq5Eh--43" target="pcVTQhZWkRdv3neq5Eh--96">
          <mxGeometry relative="1" as="geometry" />
        </mxCell>
        <mxCell id="pcVTQhZWkRdv3neq5Eh--109" style="edgeStyle=orthogonalEdgeStyle;orthogonalLoop=1;jettySize=auto;html=1;entryX=0;entryY=0.5;entryDx=0;entryDy=0;" edge="1" parent="1" source="pcVTQhZWkRdv3neq5Eh--43" target="pcVTQhZWkRdv3neq5Eh--92">
          <mxGeometry relative="1" as="geometry" />
        </mxCell>
        <mxCell id="pcVTQhZWkRdv3neq5Eh--43" value="query" style="whiteSpace=wrap;html=1;dashed=1;fillColor=#e1d5e7;strokeColor=#9673a6;rounded=1;" vertex="1" parent="1">
          <mxGeometry x="-260" y="153" width="100" height="40" as="geometry" />
        </mxCell>
        <mxCell id="pcVTQhZWkRdv3neq5Eh--63" value="" style="edgeStyle=orthogonalEdgeStyle;orthogonalLoop=1;jettySize=auto;html=1;" edge="1" parent="1" source="pcVTQhZWkRdv3neq5Eh--45" target="pcVTQhZWkRdv3neq5Eh--62">
          <mxGeometry relative="1" as="geometry" />
        </mxCell>
        <mxCell id="pcVTQhZWkRdv3neq5Eh--45" value="keyword suggsetion&lt;br&gt;（1min）" style="whiteSpace=wrap;html=1;dashed=1;fillColor=#d5e8d4;strokeColor=#82b366;rounded=1;" vertex="1" parent="1">
          <mxGeometry x="130" y="153" width="100" height="40" as="geometry" />
        </mxCell>
        <mxCell id="pcVTQhZWkRdv3neq5Eh--47" value="" style="edgeStyle=orthogonalEdgeStyle;orthogonalLoop=1;jettySize=auto;html=1;" edge="1" parent="1" source="pcVTQhZWkRdv3neq5Eh--46">
          <mxGeometry relative="1" as="geometry">
            <mxPoint x="394" y="516" as="targetPoint" />
          </mxGeometry>
        </mxCell>
        <mxCell id="pcVTQhZWkRdv3neq5Eh--46" value="CTR model&lt;br&gt;train (12h)" style="whiteSpace=wrap;html=1;dashed=1;rounded=1;" vertex="1" parent="1">
          <mxGeometry x="276" y="496" width="74" height="40" as="geometry" />
        </mxCell>
        <mxCell id="pcVTQhZWkRdv3neq5Eh--59" style="edgeStyle=orthogonalEdgeStyle;orthogonalLoop=1;jettySize=auto;html=1;entryX=0;entryY=0.5;entryDx=0;entryDy=0;" edge="1" parent="1" source="pcVTQhZWkRdv3neq5Eh--49" target="pcVTQhZWkRdv3neq5Eh--46">
          <mxGeometry relative="1" as="geometry" />
        </mxCell>
        <mxCell id="pcVTQhZWkRdv3neq5Eh--49" value="train user feature" style="whiteSpace=wrap;html=1;dashed=1;rounded=1;" vertex="1" parent="1">
          <mxGeometry x="52" y="602" width="100" height="40" as="geometry" />
        </mxCell>
        <mxCell id="pcVTQhZWkRdv3neq5Eh--58" style="edgeStyle=orthogonalEdgeStyle;orthogonalLoop=1;jettySize=auto;html=1;entryX=0;entryY=0.5;entryDx=0;entryDy=0;" edge="1" parent="1" source="pcVTQhZWkRdv3neq5Eh--50" target="pcVTQhZWkRdv3neq5Eh--46">
          <mxGeometry relative="1" as="geometry" />
        </mxCell>
        <mxCell id="pcVTQhZWkRdv3neq5Eh--50" value="train item feature" style="whiteSpace=wrap;html=1;dashed=1;rounded=1;" vertex="1" parent="1">
          <mxGeometry x="54" y="446" width="100" height="40" as="geometry" />
        </mxCell>
        <mxCell id="pcVTQhZWkRdv3neq5Eh--61" style="edgeStyle=orthogonalEdgeStyle;orthogonalLoop=1;jettySize=auto;html=1;entryX=0;entryY=0.5;entryDx=0;entryDy=0;" edge="1" parent="1" source="pcVTQhZWkRdv3neq5Eh--51" target="pcVTQhZWkRdv3neq5Eh--46">
          <mxGeometry relative="1" as="geometry" />
        </mxCell>
        <mxCell id="pcVTQhZWkRdv3neq5Eh--51" value="user behavior&lt;br&gt;(index)" style="whiteSpace=wrap;html=1;dashed=1;rounded=1;" vertex="1" parent="1">
          <mxGeometry x="54" y="396" width="100" height="40" as="geometry" />
        </mxCell>
        <mxCell id="pcVTQhZWkRdv3neq5Eh--55" style="edgeStyle=orthogonalEdgeStyle;orthogonalLoop=1;jettySize=auto;html=1;entryX=0;entryY=0.5;entryDx=0;entryDy=0;" edge="1" parent="1" source="pcVTQhZWkRdv3neq5Eh--53" target="pcVTQhZWkRdv3neq5Eh--46">
          <mxGeometry relative="1" as="geometry" />
        </mxCell>
        <mxCell id="pcVTQhZWkRdv3neq5Eh--53" value="user-item last click from now" style="whiteSpace=wrap;html=1;dashed=1;rounded=1;" vertex="1" parent="1">
          <mxGeometry x="54" y="346" width="100" height="40" as="geometry" />
        </mxCell>
        <mxCell id="pcVTQhZWkRdv3neq5Eh--64" value="" style="edgeStyle=orthogonalEdgeStyle;orthogonalLoop=1;jettySize=auto;html=1;" edge="1" parent="1" source="pcVTQhZWkRdv3neq5Eh--62" target="pcVTQhZWkRdv3neq5Eh--6">
          <mxGeometry relative="1" as="geometry" />
        </mxCell>
        <mxCell id="pcVTQhZWkRdv3neq5Eh--62" value="keyword2tag" style="whiteSpace=wrap;html=1;dashed=1;rounded=1;" vertex="1" parent="1">
          <mxGeometry x="261" y="153" width="100" height="40" as="geometry" />
        </mxCell>
        <mxCell id="pcVTQhZWkRdv3neq5Eh--65" value="input" style="whiteSpace=wrap;html=1;dashed=1;fillColor=#e1d5e7;strokeColor=#9673a6;rounded=1;" vertex="1" parent="1">
          <mxGeometry x="710" y="20" width="100" height="40" as="geometry" />
        </mxCell>
        <mxCell id="pcVTQhZWkRdv3neq5Eh--67" value="output" style="whiteSpace=wrap;html=1;dashed=1;fillColor=#d5e8d4;strokeColor=#82b366;rounded=1;" vertex="1" parent="1">
          <mxGeometry x="710" y="90" width="100" height="40" as="geometry" />
        </mxCell>
        <mxCell id="pcVTQhZWkRdv3neq5Eh--80" style="edgeStyle=orthogonalEdgeStyle;orthogonalLoop=1;jettySize=auto;html=1;entryX=0;entryY=0.5;entryDx=0;entryDy=0;" edge="1" parent="1" source="pcVTQhZWkRdv3neq5Eh--69" target="pcVTQhZWkRdv3neq5Eh--71">
          <mxGeometry relative="1" as="geometry" />
        </mxCell>
        <mxCell id="pcVTQhZWkRdv3neq5Eh--69" value="raw user feature&lt;br&gt;(3min)" style="whiteSpace=wrap;html=1;dashed=1;rounded=1;" vertex="1" parent="1">
          <mxGeometry x="-188" y="576" width="90" height="40" as="geometry" />
        </mxCell>
        <mxCell id="pcVTQhZWkRdv3neq5Eh--77" value="" style="edgeStyle=orthogonalEdgeStyle;orthogonalLoop=1;jettySize=auto;html=1;" edge="1" parent="1" source="pcVTQhZWkRdv3neq5Eh--70" target="pcVTQhZWkRdv3neq5Eh--72">
          <mxGeometry relative="1" as="geometry" />
        </mxCell>
        <mxCell id="pcVTQhZWkRdv3neq5Eh--70" value="raw item feature&lt;br&gt;(2min)" style="whiteSpace=wrap;html=1;dashed=1;rounded=1;" vertex="1" parent="1">
          <mxGeometry x="-189" y="471" width="90" height="40" as="geometry" />
        </mxCell>
        <mxCell id="VH7fO5BwMdIm3bWLYocF-4" style="edgeStyle=orthogonalEdgeStyle;rounded=0;orthogonalLoop=1;jettySize=auto;html=1;entryX=0;entryY=0.5;entryDx=0;entryDy=0;strokeColor=#000000;" edge="1" parent="1" source="pcVTQhZWkRdv3neq5Eh--71" target="pcVTQhZWkRdv3neq5Eh--49">
          <mxGeometry relative="1" as="geometry" />
        </mxCell>
        <mxCell id="VH7fO5BwMdIm3bWLYocF-5" style="edgeStyle=orthogonalEdgeStyle;rounded=0;orthogonalLoop=1;jettySize=auto;html=1;entryX=0;entryY=0.5;entryDx=0;entryDy=0;strokeColor=#000000;" edge="1" parent="1" source="pcVTQhZWkRdv3neq5Eh--71" target="pcVTQhZWkRdv3neq5Eh--118">
          <mxGeometry relative="1" as="geometry" />
        </mxCell>
        <mxCell id="pcVTQhZWkRdv3neq5Eh--71" value="ranking user feature" style="whiteSpace=wrap;html=1;dashed=1;rounded=1;" vertex="1" parent="1">
          <mxGeometry x="-66" y="576" width="80" height="40" as="geometry" />
        </mxCell>
        <mxCell id="VH7fO5BwMdIm3bWLYocF-6" style="edgeStyle=orthogonalEdgeStyle;rounded=0;orthogonalLoop=1;jettySize=auto;html=1;entryX=0;entryY=0.5;entryDx=0;entryDy=0;strokeColor=#000000;" edge="1" parent="1" source="pcVTQhZWkRdv3neq5Eh--72" target="pcVTQhZWkRdv3neq5Eh--119">
          <mxGeometry relative="1" as="geometry" />
        </mxCell>
        <mxCell id="VH7fO5BwMdIm3bWLYocF-7" style="edgeStyle=orthogonalEdgeStyle;rounded=0;orthogonalLoop=1;jettySize=auto;html=1;entryX=0;entryY=0.5;entryDx=0;entryDy=0;strokeColor=#000000;" edge="1" parent="1" source="pcVTQhZWkRdv3neq5Eh--72" target="pcVTQhZWkRdv3neq5Eh--50">
          <mxGeometry relative="1" as="geometry" />
        </mxCell>
        <mxCell id="pcVTQhZWkRdv3neq5Eh--72" value="ranking item feature" style="whiteSpace=wrap;html=1;dashed=1;rounded=1;" vertex="1" parent="1">
          <mxGeometry x="-67" y="471" width="80" height="40" as="geometry" />
        </mxCell>
        <mxCell id="pcVTQhZWkRdv3neq5Eh--86" style="edgeStyle=orthogonalEdgeStyle;orthogonalLoop=1;jettySize=auto;html=1;" edge="1" parent="1" source="pcVTQhZWkRdv3neq5Eh--75" target="pcVTQhZWkRdv3neq5Eh--51">
          <mxGeometry relative="1" as="geometry" />
        </mxCell>
        <mxCell id="pcVTQhZWkRdv3neq5Eh--87" style="edgeStyle=orthogonalEdgeStyle;orthogonalLoop=1;jettySize=auto;html=1;entryX=0;entryY=0.5;entryDx=0;entryDy=0;" edge="1" parent="1" source="pcVTQhZWkRdv3neq5Eh--75" target="pcVTQhZWkRdv3neq5Eh--53">
          <mxGeometry relative="1" as="geometry" />
        </mxCell>
        <mxCell id="pcVTQhZWkRdv3neq5Eh--75" value="search after click" style="whiteSpace=wrap;html=1;dashed=1;rounded=1;" vertex="1" parent="1">
          <mxGeometry x="-66" y="376" width="80" height="40" as="geometry" />
        </mxCell>
        <mxCell id="pcVTQhZWkRdv3neq5Eh--101" style="edgeStyle=orthogonalEdgeStyle;orthogonalLoop=1;jettySize=auto;html=1;entryX=0;entryY=0.5;entryDx=0;entryDy=0;" edge="1" parent="1" source="pcVTQhZWkRdv3neq5Eh--92" target="pcVTQhZWkRdv3neq5Eh--45">
          <mxGeometry relative="1" as="geometry" />
        </mxCell>
        <mxCell id="pcVTQhZWkRdv3neq5Eh--92" value="query2query&lt;br&gt;(10min)" style="whiteSpace=wrap;html=1;dashed=1;rounded=1;" vertex="1" parent="1">
          <mxGeometry x="-48" y="218" width="100" height="40" as="geometry" />
        </mxCell>
        <mxCell id="pcVTQhZWkRdv3neq5Eh--95" value="" style="edgeStyle=orthogonalEdgeStyle;orthogonalLoop=1;jettySize=auto;html=1;" edge="1" parent="1" source="pcVTQhZWkRdv3neq5Eh--93" target="pcVTQhZWkRdv3neq5Eh--92">
          <mxGeometry relative="1" as="geometry" />
        </mxCell>
        <mxCell id="pcVTQhZWkRdv3neq5Eh--93" value="&lt;font face=&quot;helvetica&quot;&gt;query embedding&lt;/font&gt;" style="shape=parallelogram;perimeter=parallelogramPerimeter;whiteSpace=wrap;html=1;fixedSize=1;dashed=1;rounded=1;" vertex="1" parent="1">
          <mxGeometry x="-57" y="280" width="120" height="40" as="geometry" />
        </mxCell>
        <mxCell id="pcVTQhZWkRdv3neq5Eh--99" style="edgeStyle=orthogonalEdgeStyle;orthogonalLoop=1;jettySize=auto;html=1;entryX=0;entryY=0.5;entryDx=0;entryDy=0;" edge="1" parent="1" source="pcVTQhZWkRdv3neq5Eh--96" target="pcVTQhZWkRdv3neq5Eh--45">
          <mxGeometry relative="1" as="geometry" />
        </mxCell>
        <mxCell id="pcVTQhZWkRdv3neq5Eh--96" value="Prefix Tree&lt;br&gt;Pinyin Prefix Tree&lt;br&gt;Suffix Tree&lt;br&gt;(1min)" style="whiteSpace=wrap;html=1;dashed=1;rounded=1;" vertex="1" parent="1">
          <mxGeometry x="-50" y="142" width="100" height="62" as="geometry" />
        </mxCell>
        <mxCell id="pcVTQhZWkRdv3neq5Eh--102" style="edgeStyle=orthogonalEdgeStyle;orthogonalLoop=1;jettySize=auto;html=1;entryX=0;entryY=0.5;entryDx=0;entryDy=0;" edge="1" parent="1" source="pcVTQhZWkRdv3neq5Eh--98" target="pcVTQhZWkRdv3neq5Eh--45">
          <mxGeometry relative="1" as="geometry" />
        </mxCell>
        <mxCell id="pcVTQhZWkRdv3neq5Eh--98" value="brand mapping" style="whiteSpace=wrap;html=1;dashed=1;rounded=1;" vertex="1" parent="1">
          <mxGeometry x="-50" y="91" width="100" height="40" as="geometry" />
        </mxCell>
        <mxCell id="pcVTQhZWkRdv3neq5Eh--106" value="" style="edgeStyle=orthogonalEdgeStyle;orthogonalLoop=1;jettySize=auto;html=1;" edge="1" parent="1" source="pcVTQhZWkRdv3neq5Eh--104" target="pcVTQhZWkRdv3neq5Eh--7">
          <mxGeometry relative="1" as="geometry" />
        </mxCell>
        <mxCell id="pcVTQhZWkRdv3neq5Eh--104" value="user2tag" style="whiteSpace=wrap;html=1;dashed=1;rounded=1;" vertex="1" parent="1">
          <mxGeometry x="261" y="223" width="100" height="40" as="geometry" />
        </mxCell>
        <mxCell id="pcVTQhZWkRdv3neq5Eh--110" value="recall service&lt;br&gt;(avg0.008s)" style="whiteSpace=wrap;html=1;dashed=1;rounded=1;" vertex="1" parent="1">
          <mxGeometry x="394" y="496" width="78" height="40" as="geometry" />
        </mxCell>
        <mxCell id="pcVTQhZWkRdv3neq5Eh--112" value="ranking items&lt;br&gt;(avg1.19s)" style="whiteSpace=wrap;html=1;dashed=1;fillColor=#d5e8d4;strokeColor=#82b366;rounded=1;" vertex="1" parent="1">
          <mxGeometry x="513" y="569" width="100" height="40" as="geometry" />
        </mxCell>
        <mxCell id="pcVTQhZWkRdv3neq5Eh--117" value="" style="edgeStyle=orthogonalEdgeStyle;orthogonalLoop=1;jettySize=auto;html=1;" edge="1" parent="1" source="pcVTQhZWkRdv3neq5Eh--114" target="pcVTQhZWkRdv3neq5Eh--110">
          <mxGeometry relative="1" as="geometry" />
        </mxCell>
        <mxCell id="pcVTQhZWkRdv3neq5Eh--114" value="open_id" style="whiteSpace=wrap;html=1;dashed=1;fillColor=#e1d5e7;strokeColor=#9673a6;rounded=1;" vertex="1" parent="1">
          <mxGeometry x="383" y="417" width="100" height="40" as="geometry" />
        </mxCell>
        <mxCell id="pcVTQhZWkRdv3neq5Eh--115" style="edgeStyle=orthogonalEdgeStyle;orthogonalLoop=1;jettySize=auto;html=1;entryX=0.5;entryY=0;entryDx=0;entryDy=0;" edge="1" parent="1" source="pcVTQhZWkRdv3neq5Eh--116">
          <mxGeometry relative="1" as="geometry">
            <mxPoint x="433" y="497" as="targetPoint" />
            <Array as="points">
              <mxPoint x="565" y="477" />
              <mxPoint x="433" y="477" />
            </Array>
          </mxGeometry>
        </mxCell>
        <mxCell id="pcVTQhZWkRdv3neq5Eh--116" value="query" style="whiteSpace=wrap;html=1;dashed=1;fillColor=#e1d5e7;strokeColor=#9673a6;rounded=1;" vertex="1" parent="1">
          <mxGeometry x="515" y="417" width="100" height="40" as="geometry" />
        </mxCell>
        <mxCell id="VH7fO5BwMdIm3bWLYocF-3" style="edgeStyle=orthogonalEdgeStyle;orthogonalLoop=1;jettySize=auto;html=1;entryX=0;entryY=0.5;entryDx=0;entryDy=0;strokeColor=#000000;" edge="1" parent="1" source="pcVTQhZWkRdv3neq5Eh--118" target="pcVTQhZWkRdv3neq5Eh--46">
          <mxGeometry relative="1" as="geometry" />
        </mxCell>
        <mxCell id="pcVTQhZWkRdv3neq5Eh--118" value="embedding&amp;nbsp;&lt;br&gt;user feature" style="whiteSpace=wrap;html=1;dashed=1;rounded=1;strokeColor=#E6E6E6;" vertex="1" parent="1">
          <mxGeometry x="54" y="547" width="99" height="40" as="geometry" />
        </mxCell>
        <mxCell id="VH7fO5BwMdIm3bWLYocF-1" style="edgeStyle=orthogonalEdgeStyle;orthogonalLoop=1;jettySize=auto;html=1;entryX=0;entryY=0.5;entryDx=0;entryDy=0;strokeColor=#000000;" edge="1" parent="1" source="pcVTQhZWkRdv3neq5Eh--119" target="pcVTQhZWkRdv3neq5Eh--46">
          <mxGeometry relative="1" as="geometry" />
        </mxCell>
        <mxCell id="pcVTQhZWkRdv3neq5Eh--119" value="embedding item feature" style="whiteSpace=wrap;html=1;dashed=1;rounded=1;strokeColor=#E6E6E6;" vertex="1" parent="1">
          <mxGeometry x="54" y="497" width="100" height="40" as="geometry" />
        </mxCell>
        <mxCell id="C0xwAsRnoCJTexPsXbv--4" style="edgeStyle=orthogonalEdgeStyle;rounded=0;orthogonalLoop=1;jettySize=auto;html=1;entryX=0;entryY=0.5;entryDx=0;entryDy=0;strokeColor=#000000;fontSize=30;" edge="1" parent="1" source="C0xwAsRnoCJTexPsXbv--2" target="pcVTQhZWkRdv3neq5Eh--13">
          <mxGeometry relative="1" as="geometry" />
        </mxCell>
        <mxCell id="C0xwAsRnoCJTexPsXbv--2" value="keywords2item&lt;br&gt;(1min)" style="whiteSpace=wrap;html=1;dashed=1;rounded=1;" vertex="1" parent="1">
          <mxGeometry x="-67" y="664" width="84" height="40" as="geometry" />
        </mxCell>
      </root>
    </mxGraphModel>
  </diagram>
  <diagram id="J5hDwUfsiH80stfVoWMB" name="Page-2">
    <mxGraphModel dx="1493" dy="1117" grid="0" gridSize="10" guides="1" tooltips="1" connect="1" arrows="1" fold="1" page="0" pageScale="1" pageWidth="827" pageHeight="1169" math="0" shadow="0">
      <root>
        <mxCell id="O1yb1o3u_2_CQ1LjRxnh-0" />
        <mxCell id="O1yb1o3u_2_CQ1LjRxnh-1" parent="O1yb1o3u_2_CQ1LjRxnh-0" />
        <mxCell id="E969s3RUasVL38DYVkp5-65" value="" style="rounded=0;whiteSpace=wrap;html=1;dashed=1;fillColor=none;" vertex="1" parent="O1yb1o3u_2_CQ1LjRxnh-1">
          <mxGeometry x="1020" y="-32" width="562" height="856" as="geometry" />
        </mxCell>
        <mxCell id="33Tqa_Rm8l7cyrTF1xwm-105" value="" style="edgeStyle=orthogonalEdgeStyle;orthogonalLoop=1;jettySize=auto;html=1;entryX=0;entryY=0.5;entryDx=0;entryDy=0;" edge="1" parent="O1yb1o3u_2_CQ1LjRxnh-1" source="33Tqa_Rm8l7cyrTF1xwm-83" target="33Tqa_Rm8l7cyrTF1xwm-88">
          <mxGeometry relative="1" as="geometry" />
        </mxCell>
        <mxCell id="33Tqa_Rm8l7cyrTF1xwm-83" value="raw user feature&lt;br&gt;(read hvie)" style="whiteSpace=wrap;html=1;dashed=1;fillColor=#b0e3e6;strokeColor=#0e8088;rounded=1;" vertex="1" parent="O1yb1o3u_2_CQ1LjRxnh-1">
          <mxGeometry x="896.5" y="424" width="90" height="40" as="geometry" />
        </mxCell>
        <mxCell id="33Tqa_Rm8l7cyrTF1xwm-104" value="" style="edgeStyle=orthogonalEdgeStyle;orthogonalLoop=1;jettySize=auto;html=1;" edge="1" parent="O1yb1o3u_2_CQ1LjRxnh-1" source="33Tqa_Rm8l7cyrTF1xwm-84" target="33Tqa_Rm8l7cyrTF1xwm-89">
          <mxGeometry relative="1" as="geometry" />
        </mxCell>
        <mxCell id="mbMeFdVH4TvPSmx66B32-8" value="" style="edgeStyle=orthogonalEdgeStyle;orthogonalLoop=1;jettySize=auto;html=1;" edge="1" parent="O1yb1o3u_2_CQ1LjRxnh-1" source="33Tqa_Rm8l7cyrTF1xwm-84" target="mbMeFdVH4TvPSmx66B32-6">
          <mxGeometry relative="1" as="geometry" />
        </mxCell>
        <mxCell id="33Tqa_Rm8l7cyrTF1xwm-84" value="raw item feature&lt;br&gt;(read hive)" style="whiteSpace=wrap;html=1;dashed=1;fillColor=#b0e3e6;strokeColor=#0e8088;rounded=1;" vertex="1" parent="O1yb1o3u_2_CQ1LjRxnh-1">
          <mxGeometry x="896" y="173.5" width="90" height="40" as="geometry" />
        </mxCell>
        <mxCell id="mbMeFdVH4TvPSmx66B32-0" value="" style="edgeStyle=orthogonalEdgeStyle;orthogonalLoop=1;jettySize=auto;html=1;" edge="1" parent="O1yb1o3u_2_CQ1LjRxnh-1" source="33Tqa_Rm8l7cyrTF1xwm-85" target="33Tqa_Rm8l7cyrTF1xwm-90">
          <mxGeometry relative="1" as="geometry" />
        </mxCell>
        <mxCell id="mbMeFdVH4TvPSmx66B32-10" value="" style="edgeStyle=orthogonalEdgeStyle;orthogonalLoop=1;jettySize=auto;html=1;" edge="1" parent="O1yb1o3u_2_CQ1LjRxnh-1" source="33Tqa_Rm8l7cyrTF1xwm-85" target="mbMeFdVH4TvPSmx66B32-9">
          <mxGeometry relative="1" as="geometry" />
        </mxCell>
        <mxCell id="mbMeFdVH4TvPSmx66B32-18" style="edgeStyle=orthogonalEdgeStyle;orthogonalLoop=1;jettySize=auto;html=1;entryX=0;entryY=0.5;entryDx=0;entryDy=0;" edge="1" parent="O1yb1o3u_2_CQ1LjRxnh-1" source="33Tqa_Rm8l7cyrTF1xwm-85" target="mbMeFdVH4TvPSmx66B32-15">
          <mxGeometry relative="1" as="geometry" />
        </mxCell>
        <mxCell id="33Tqa_Rm8l7cyrTF1xwm-85" value="user item behavior&lt;br&gt;(read hive)&lt;br&gt;" style="whiteSpace=wrap;html=1;dashed=1;fillColor=#b0e3e6;strokeColor=#0e8088;rounded=1;" vertex="1" parent="O1yb1o3u_2_CQ1LjRxnh-1">
          <mxGeometry x="894" y="263" width="91" height="40" as="geometry" />
        </mxCell>
        <mxCell id="mbMeFdVH4TvPSmx66B32-30" value="" style="edgeStyle=orthogonalEdgeStyle;orthogonalLoop=1;jettySize=auto;html=1;" edge="1" parent="O1yb1o3u_2_CQ1LjRxnh-1" source="33Tqa_Rm8l7cyrTF1xwm-86" target="mbMeFdVH4TvPSmx66B32-25">
          <mxGeometry relative="1" as="geometry" />
        </mxCell>
        <mxCell id="33Tqa_Rm8l7cyrTF1xwm-86" value="brand mapping&lt;br&gt;(read excel)" style="whiteSpace=wrap;html=1;dashed=1;fillColor=#b0e3e6;strokeColor=#0e8088;rounded=1;" vertex="1" parent="O1yb1o3u_2_CQ1LjRxnh-1">
          <mxGeometry x="895" y="739" width="98" height="40" as="geometry" />
        </mxCell>
        <mxCell id="33Tqa_Rm8l7cyrTF1xwm-109" style="edgeStyle=orthogonalEdgeStyle;orthogonalLoop=1;jettySize=auto;html=1;entryX=0;entryY=0.5;entryDx=0;entryDy=0;" edge="1" parent="O1yb1o3u_2_CQ1LjRxnh-1" source="33Tqa_Rm8l7cyrTF1xwm-87" target="33Tqa_Rm8l7cyrTF1xwm-94">
          <mxGeometry relative="1" as="geometry" />
        </mxCell>
        <mxCell id="33Tqa_Rm8l7cyrTF1xwm-87" value="&amp;nbsp;query&amp;nbsp; list&lt;br&gt;(read excel)" style="whiteSpace=wrap;html=1;dashed=1;fillColor=#b0e3e6;strokeColor=#0e8088;rounded=1;" vertex="1" parent="O1yb1o3u_2_CQ1LjRxnh-1">
          <mxGeometry x="896.5" y="611" width="91" height="40" as="geometry" />
        </mxCell>
        <mxCell id="33Tqa_Rm8l7cyrTF1xwm-112" style="edgeStyle=orthogonalEdgeStyle;orthogonalLoop=1;jettySize=auto;html=1;entryX=0;entryY=0.5;entryDx=0;entryDy=0;" edge="1" parent="O1yb1o3u_2_CQ1LjRxnh-1" source="33Tqa_Rm8l7cyrTF1xwm-88" target="33Tqa_Rm8l7cyrTF1xwm-93">
          <mxGeometry relative="1" as="geometry" />
        </mxCell>
        <mxCell id="mbMeFdVH4TvPSmx66B32-3" value="" style="edgeStyle=orthogonalEdgeStyle;orthogonalLoop=1;jettySize=auto;html=1;" edge="1" parent="O1yb1o3u_2_CQ1LjRxnh-1" source="33Tqa_Rm8l7cyrTF1xwm-88" target="33Tqa_Rm8l7cyrTF1xwm-97">
          <mxGeometry relative="1" as="geometry" />
        </mxCell>
        <mxCell id="33Tqa_Rm8l7cyrTF1xwm-88" value="ranking user feature" style="whiteSpace=wrap;html=1;dashed=1;rounded=1;" vertex="1" parent="O1yb1o3u_2_CQ1LjRxnh-1">
          <mxGeometry x="1039.5" y="424" width="90" height="40" as="geometry" />
        </mxCell>
        <mxCell id="33Tqa_Rm8l7cyrTF1xwm-113" style="edgeStyle=orthogonalEdgeStyle;orthogonalLoop=1;jettySize=auto;html=1;entryX=0;entryY=0.5;entryDx=0;entryDy=0;" edge="1" parent="O1yb1o3u_2_CQ1LjRxnh-1" source="33Tqa_Rm8l7cyrTF1xwm-89" target="33Tqa_Rm8l7cyrTF1xwm-93">
          <mxGeometry relative="1" as="geometry" />
        </mxCell>
        <mxCell id="mbMeFdVH4TvPSmx66B32-2" value="" style="edgeStyle=orthogonalEdgeStyle;orthogonalLoop=1;jettySize=auto;html=1;" edge="1" parent="O1yb1o3u_2_CQ1LjRxnh-1" source="33Tqa_Rm8l7cyrTF1xwm-89" target="33Tqa_Rm8l7cyrTF1xwm-98">
          <mxGeometry relative="1" as="geometry" />
        </mxCell>
        <mxCell id="33Tqa_Rm8l7cyrTF1xwm-89" value="ranking item feature" style="whiteSpace=wrap;html=1;dashed=1;rounded=1;" vertex="1" parent="O1yb1o3u_2_CQ1LjRxnh-1">
          <mxGeometry x="1039" y="173.5" width="90" height="40" as="geometry" />
        </mxCell>
        <mxCell id="33Tqa_Rm8l7cyrTF1xwm-111" style="edgeStyle=orthogonalEdgeStyle;orthogonalLoop=1;jettySize=auto;html=1;entryX=0;entryY=0.5;entryDx=0;entryDy=0;" edge="1" parent="O1yb1o3u_2_CQ1LjRxnh-1" source="33Tqa_Rm8l7cyrTF1xwm-90" target="33Tqa_Rm8l7cyrTF1xwm-93">
          <mxGeometry relative="1" as="geometry" />
        </mxCell>
        <mxCell id="33Tqa_Rm8l7cyrTF1xwm-90" value="user item behavior (index)" style="whiteSpace=wrap;html=1;dashed=1;rounded=1;" vertex="1" parent="O1yb1o3u_2_CQ1LjRxnh-1">
          <mxGeometry x="1038" y="232.5" width="91" height="40" as="geometry" />
        </mxCell>
        <mxCell id="33Tqa_Rm8l7cyrTF1xwm-103" style="edgeStyle=orthogonalEdgeStyle;orthogonalLoop=1;jettySize=auto;html=1;entryX=0;entryY=0.5;entryDx=0;entryDy=0;strokeColor=#E6E6E6;" edge="1" parent="O1yb1o3u_2_CQ1LjRxnh-1" source="33Tqa_Rm8l7cyrTF1xwm-91" target="33Tqa_Rm8l7cyrTF1xwm-95">
          <mxGeometry relative="1" as="geometry">
            <Array as="points">
              <mxPoint x="1341" y="386" />
            </Array>
          </mxGeometry>
        </mxCell>
        <mxCell id="33Tqa_Rm8l7cyrTF1xwm-91" value="user embedding" style="whiteSpace=wrap;html=1;dashed=1;rounded=1;" vertex="1" parent="O1yb1o3u_2_CQ1LjRxnh-1">
          <mxGeometry x="1292" y="497" width="98" height="40" as="geometry" />
        </mxCell>
        <mxCell id="33Tqa_Rm8l7cyrTF1xwm-102" style="edgeStyle=orthogonalEdgeStyle;orthogonalLoop=1;jettySize=auto;html=1;entryX=0;entryY=0.5;entryDx=0;entryDy=0;strokeColor=#E6E6E6;" edge="1" parent="O1yb1o3u_2_CQ1LjRxnh-1" source="33Tqa_Rm8l7cyrTF1xwm-92" target="33Tqa_Rm8l7cyrTF1xwm-95">
          <mxGeometry relative="1" as="geometry">
            <Array as="points">
              <mxPoint x="1342" y="386" />
            </Array>
          </mxGeometry>
        </mxCell>
        <mxCell id="mbMeFdVH4TvPSmx66B32-39" style="edgeStyle=orthogonalEdgeStyle;orthogonalLoop=1;jettySize=auto;html=1;entryX=1;entryY=0.5;entryDx=0;entryDy=0;strokeColor=#000000;" edge="1" parent="O1yb1o3u_2_CQ1LjRxnh-1" source="33Tqa_Rm8l7cyrTF1xwm-92" target="mbMeFdVH4TvPSmx66B32-38">
          <mxGeometry relative="1" as="geometry">
            <Array as="points">
              <mxPoint x="1342" y="55" />
            </Array>
          </mxGeometry>
        </mxCell>
        <mxCell id="33Tqa_Rm8l7cyrTF1xwm-92" value="item embedding" style="whiteSpace=wrap;html=1;dashed=1;rounded=1;" vertex="1" parent="O1yb1o3u_2_CQ1LjRxnh-1">
          <mxGeometry x="1294" y="93" width="96" height="40" as="geometry" />
        </mxCell>
        <mxCell id="mbMeFdVH4TvPSmx66B32-36" style="edgeStyle=orthogonalEdgeStyle;orthogonalLoop=1;jettySize=auto;html=1;entryX=0;entryY=0.5;entryDx=0;entryDy=0;" edge="1" parent="O1yb1o3u_2_CQ1LjRxnh-1" source="33Tqa_Rm8l7cyrTF1xwm-93" target="mbMeFdVH4TvPSmx66B32-35">
          <mxGeometry relative="1" as="geometry" />
        </mxCell>
        <mxCell id="33Tqa_Rm8l7cyrTF1xwm-93" value="ctr mdoel" style="whiteSpace=wrap;html=1;dashed=1;rounded=1;" vertex="1" parent="O1yb1o3u_2_CQ1LjRxnh-1">
          <mxGeometry x="1415.5" y="292" width="93" height="40" as="geometry" />
        </mxCell>
        <mxCell id="mbMeFdVH4TvPSmx66B32-26" value="" style="edgeStyle=orthogonalEdgeStyle;orthogonalLoop=1;jettySize=auto;html=1;" edge="1" parent="O1yb1o3u_2_CQ1LjRxnh-1" source="33Tqa_Rm8l7cyrTF1xwm-94" target="mbMeFdVH4TvPSmx66B32-25">
          <mxGeometry relative="1" as="geometry" />
        </mxCell>
        <mxCell id="mbMeFdVH4TvPSmx66B32-27" value="" style="edgeStyle=orthogonalEdgeStyle;orthogonalLoop=1;jettySize=auto;html=1;" edge="1" parent="O1yb1o3u_2_CQ1LjRxnh-1" source="33Tqa_Rm8l7cyrTF1xwm-94" target="mbMeFdVH4TvPSmx66B32-24">
          <mxGeometry relative="1" as="geometry" />
        </mxCell>
        <mxCell id="33Tqa_Rm8l7cyrTF1xwm-94" value="query embedding" style="whiteSpace=wrap;html=1;dashed=1;rounded=1;" vertex="1" parent="O1yb1o3u_2_CQ1LjRxnh-1">
          <mxGeometry x="1294" y="611" width="98" height="40" as="geometry" />
        </mxCell>
        <mxCell id="mbMeFdVH4TvPSmx66B32-42" value="" style="edgeStyle=orthogonalEdgeStyle;orthogonalLoop=1;jettySize=auto;html=1;strokeColor=#E6E6E6;" edge="1" parent="O1yb1o3u_2_CQ1LjRxnh-1" source="33Tqa_Rm8l7cyrTF1xwm-95" target="33Tqa_Rm8l7cyrTF1xwm-93">
          <mxGeometry relative="1" as="geometry" />
        </mxCell>
        <mxCell id="33Tqa_Rm8l7cyrTF1xwm-95" value="user-item embedding" style="whiteSpace=wrap;html=1;dashed=1;strokeColor=#E6E6E6;rounded=1;" vertex="1" parent="O1yb1o3u_2_CQ1LjRxnh-1">
          <mxGeometry x="1414" y="366" width="96" height="40" as="geometry" />
        </mxCell>
        <mxCell id="33Tqa_Rm8l7cyrTF1xwm-96" style="edgeStyle=orthogonalEdgeStyle;orthogonalLoop=1;jettySize=auto;html=1;exitX=0.5;exitY=1;exitDx=0;exitDy=0;" edge="1" parent="O1yb1o3u_2_CQ1LjRxnh-1" source="33Tqa_Rm8l7cyrTF1xwm-93" target="33Tqa_Rm8l7cyrTF1xwm-93">
          <mxGeometry relative="1" as="geometry" />
        </mxCell>
        <mxCell id="mbMeFdVH4TvPSmx66B32-5" style="edgeStyle=orthogonalEdgeStyle;orthogonalLoop=1;jettySize=auto;html=1;entryX=0;entryY=0.5;entryDx=0;entryDy=0;" edge="1" parent="O1yb1o3u_2_CQ1LjRxnh-1" source="33Tqa_Rm8l7cyrTF1xwm-97" target="33Tqa_Rm8l7cyrTF1xwm-91">
          <mxGeometry relative="1" as="geometry" />
        </mxCell>
        <mxCell id="33Tqa_Rm8l7cyrTF1xwm-97" value="embedding user feature" style="whiteSpace=wrap;html=1;dashed=1;rounded=1;" vertex="1" parent="O1yb1o3u_2_CQ1LjRxnh-1">
          <mxGeometry x="1039.5" y="497" width="90" height="40" as="geometry" />
        </mxCell>
        <mxCell id="mbMeFdVH4TvPSmx66B32-4" style="edgeStyle=orthogonalEdgeStyle;orthogonalLoop=1;jettySize=auto;html=1;" edge="1" parent="O1yb1o3u_2_CQ1LjRxnh-1" source="33Tqa_Rm8l7cyrTF1xwm-98" target="33Tqa_Rm8l7cyrTF1xwm-92">
          <mxGeometry relative="1" as="geometry" />
        </mxCell>
        <mxCell id="33Tqa_Rm8l7cyrTF1xwm-98" value="embedding item feature" style="whiteSpace=wrap;html=1;dashed=1;rounded=1;" vertex="1" parent="O1yb1o3u_2_CQ1LjRxnh-1">
          <mxGeometry x="1039" y="93" width="90" height="40" as="geometry" />
        </mxCell>
        <mxCell id="E969s3RUasVL38DYVkp5-8" value="" style="edgeStyle=orthogonalEdgeStyle;orthogonalLoop=1;jettySize=auto;html=1;strokeColor=#000000;" edge="1" parent="O1yb1o3u_2_CQ1LjRxnh-1" source="mbMeFdVH4TvPSmx66B32-6" target="E969s3RUasVL38DYVkp5-3">
          <mxGeometry relative="1" as="geometry" />
        </mxCell>
        <mxCell id="mbMeFdVH4TvPSmx66B32-6" value="item2tag" style="whiteSpace=wrap;html=1;dashed=1;fillColor=#b0e3e6;strokeColor=#0e8088;rounded=1;" vertex="1" parent="O1yb1o3u_2_CQ1LjRxnh-1">
          <mxGeometry x="896" y="105" width="91" height="40" as="geometry" />
        </mxCell>
        <mxCell id="E969s3RUasVL38DYVkp5-17" style="edgeStyle=orthogonalEdgeStyle;orthogonalLoop=1;jettySize=auto;html=1;entryX=1;entryY=0.5;entryDx=0;entryDy=0;strokeColor=#000000;" edge="1" parent="O1yb1o3u_2_CQ1LjRxnh-1">
          <mxGeometry relative="1" as="geometry">
            <mxPoint x="726" y="283.02857142857135" as="sourcePoint" />
            <mxPoint x="641" y="125" as="targetPoint" />
            <Array as="points">
              <mxPoint x="689" y="283" />
              <mxPoint x="689" y="125" />
            </Array>
          </mxGeometry>
        </mxCell>
        <mxCell id="mbMeFdVH4TvPSmx66B32-9" value="user2item" style="whiteSpace=wrap;html=1;dashed=1;fillColor=#b0e3e6;strokeColor=#0e8088;rounded=1;" vertex="1" parent="O1yb1o3u_2_CQ1LjRxnh-1">
          <mxGeometry x="727" y="263" width="96" height="40" as="geometry" />
        </mxCell>
        <mxCell id="E969s3RUasVL38DYVkp5-18" style="edgeStyle=orthogonalEdgeStyle;orthogonalLoop=1;jettySize=auto;html=1;entryX=1;entryY=0.5;entryDx=0;entryDy=0;strokeColor=#000000;" edge="1" parent="O1yb1o3u_2_CQ1LjRxnh-1" source="mbMeFdVH4TvPSmx66B32-11" target="mbMeFdVH4TvPSmx66B32-45">
          <mxGeometry relative="1" as="geometry" />
        </mxCell>
        <mxCell id="mbMeFdVH4TvPSmx66B32-11" value="defalut keywords&lt;br&gt;(read excel)" style="whiteSpace=wrap;html=1;dashed=1;fillColor=#b0e3e6;strokeColor=#0e8088;rounded=1;" vertex="1" parent="O1yb1o3u_2_CQ1LjRxnh-1">
          <mxGeometry x="740" y="-14" width="91" height="40" as="geometry" />
        </mxCell>
        <mxCell id="mbMeFdVH4TvPSmx66B32-19" style="edgeStyle=orthogonalEdgeStyle;orthogonalLoop=1;jettySize=auto;html=1;entryX=0;entryY=0.5;entryDx=0;entryDy=0;" edge="1" parent="O1yb1o3u_2_CQ1LjRxnh-1" source="mbMeFdVH4TvPSmx66B32-15" target="33Tqa_Rm8l7cyrTF1xwm-93">
          <mxGeometry relative="1" as="geometry" />
        </mxCell>
        <mxCell id="mbMeFdVH4TvPSmx66B32-15" value="user item last click" style="whiteSpace=wrap;html=1;dashed=1;rounded=1;" vertex="1" parent="O1yb1o3u_2_CQ1LjRxnh-1">
          <mxGeometry x="1038" y="292" width="91" height="40" as="geometry" />
        </mxCell>
        <mxCell id="mbMeFdVH4TvPSmx66B32-21" style="edgeStyle=orthogonalEdgeStyle;orthogonalLoop=1;jettySize=auto;html=1;entryX=0;entryY=0.5;entryDx=0;entryDy=0;" edge="1" parent="O1yb1o3u_2_CQ1LjRxnh-1" source="mbMeFdVH4TvPSmx66B32-20" target="33Tqa_Rm8l7cyrTF1xwm-93">
          <mxGeometry relative="1" as="geometry" />
        </mxCell>
        <mxCell id="mbMeFdVH4TvPSmx66B32-20" value="recall result" style="whiteSpace=wrap;html=1;dashed=1;rounded=1;" vertex="1" parent="O1yb1o3u_2_CQ1LjRxnh-1">
          <mxGeometry x="1038" y="356" width="91" height="40" as="geometry" />
        </mxCell>
        <mxCell id="mbMeFdVH4TvPSmx66B32-43" style="edgeStyle=orthogonalEdgeStyle;orthogonalLoop=1;jettySize=auto;html=1;entryX=0;entryY=0.5;entryDx=0;entryDy=0;" edge="1" parent="O1yb1o3u_2_CQ1LjRxnh-1" source="mbMeFdVH4TvPSmx66B32-24" target="mbMeFdVH4TvPSmx66B32-35">
          <mxGeometry relative="1" as="geometry">
            <Array as="points">
              <mxPoint x="1564" y="568" />
              <mxPoint x="1564" y="426" />
            </Array>
          </mxGeometry>
        </mxCell>
        <mxCell id="mbMeFdVH4TvPSmx66B32-24" value="recall model" style="whiteSpace=wrap;html=1;dashed=1;rounded=1;" vertex="1" parent="O1yb1o3u_2_CQ1LjRxnh-1">
          <mxGeometry x="1415.5" y="548" width="98" height="40" as="geometry" />
        </mxCell>
        <mxCell id="mbMeFdVH4TvPSmx66B32-34" value="" style="edgeStyle=orthogonalEdgeStyle;orthogonalLoop=1;jettySize=auto;html=1;" edge="1" parent="O1yb1o3u_2_CQ1LjRxnh-1" source="mbMeFdVH4TvPSmx66B32-25" target="mbMeFdVH4TvPSmx66B32-33">
          <mxGeometry relative="1" as="geometry" />
        </mxCell>
        <mxCell id="mbMeFdVH4TvPSmx66B32-25" value="query2keyword" style="whiteSpace=wrap;html=1;dashed=1;rounded=1;" vertex="1" parent="O1yb1o3u_2_CQ1LjRxnh-1">
          <mxGeometry x="1419" y="672.5" width="91" height="40" as="geometry" />
        </mxCell>
        <mxCell id="mbMeFdVH4TvPSmx66B32-29" value="" style="edgeStyle=orthogonalEdgeStyle;orthogonalLoop=1;jettySize=auto;html=1;" edge="1" parent="O1yb1o3u_2_CQ1LjRxnh-1" source="mbMeFdVH4TvPSmx66B32-28" target="mbMeFdVH4TvPSmx66B32-25">
          <mxGeometry relative="1" as="geometry" />
        </mxCell>
        <mxCell id="mbMeFdVH4TvPSmx66B32-28" value="Prefix Tree&lt;br&gt;Pinyin Prefix Tree&lt;br&gt;Suffix Tree" style="whiteSpace=wrap;html=1;dashed=1;rounded=1;" vertex="1" parent="O1yb1o3u_2_CQ1LjRxnh-1">
          <mxGeometry x="1293" y="666" width="98" height="52" as="geometry" />
        </mxCell>
        <mxCell id="mbMeFdVH4TvPSmx66B32-33" value="during search service" style="whiteSpace=wrap;html=1;dashed=1;fillColor=#dae8fc;strokeColor=#6c8ebf;rounded=1;" vertex="1" parent="O1yb1o3u_2_CQ1LjRxnh-1">
          <mxGeometry x="1614" y="672.5" width="100" height="40" as="geometry" />
        </mxCell>
        <mxCell id="mbMeFdVH4TvPSmx66B32-35" value="after search service" style="whiteSpace=wrap;html=1;dashed=1;fillColor=#dae8fc;strokeColor=#6c8ebf;rounded=1;" vertex="1" parent="O1yb1o3u_2_CQ1LjRxnh-1">
          <mxGeometry x="1621" y="406" width="97" height="40" as="geometry" />
        </mxCell>
        <mxCell id="E969s3RUasVL38DYVkp5-7" value="" style="edgeStyle=orthogonalEdgeStyle;orthogonalLoop=1;jettySize=auto;html=1;strokeColor=#000000;" edge="1" parent="O1yb1o3u_2_CQ1LjRxnh-1" source="mbMeFdVH4TvPSmx66B32-38" target="mbMeFdVH4TvPSmx66B32-6">
          <mxGeometry relative="1" as="geometry" />
        </mxCell>
        <mxCell id="E969s3RUasVL38DYVkp5-19" style="edgeStyle=orthogonalEdgeStyle;orthogonalLoop=1;jettySize=auto;html=1;entryX=1;entryY=0.5;entryDx=0;entryDy=0;strokeColor=#000000;" edge="1" parent="O1yb1o3u_2_CQ1LjRxnh-1" source="mbMeFdVH4TvPSmx66B32-38" target="mbMeFdVH4TvPSmx66B32-45">
          <mxGeometry relative="1" as="geometry">
            <Array as="points">
              <mxPoint x="942" y="55" />
              <mxPoint x="691" y="55" />
              <mxPoint x="691" y="125" />
            </Array>
          </mxGeometry>
        </mxCell>
        <mxCell id="mbMeFdVH4TvPSmx66B32-38" value="item2item" style="whiteSpace=wrap;html=1;dashed=1;fillColor=#b0e3e6;strokeColor=#0e8088;rounded=1;" vertex="1" parent="O1yb1o3u_2_CQ1LjRxnh-1">
          <mxGeometry x="897" y="35" width="90" height="40" as="geometry" />
        </mxCell>
        <mxCell id="mbMeFdVH4TvPSmx66B32-45" value="before search" style="whiteSpace=wrap;html=1;dashed=1;fillColor=#dae8fc;strokeColor=#6c8ebf;rounded=1;" vertex="1" parent="O1yb1o3u_2_CQ1LjRxnh-1">
          <mxGeometry x="554" y="105" width="90" height="40" as="geometry" />
        </mxCell>
        <mxCell id="E969s3RUasVL38DYVkp5-20" value="" style="edgeStyle=orthogonalEdgeStyle;orthogonalLoop=1;jettySize=auto;html=1;strokeColor=#000000;" edge="1" parent="O1yb1o3u_2_CQ1LjRxnh-1" source="E969s3RUasVL38DYVkp5-3" target="mbMeFdVH4TvPSmx66B32-45">
          <mxGeometry relative="1" as="geometry" />
        </mxCell>
        <mxCell id="E969s3RUasVL38DYVkp5-3" value="tag2kw" style="whiteSpace=wrap;html=1;dashed=1;fillColor=#b0e3e6;strokeColor=#0e8088;rounded=1;" vertex="1" parent="O1yb1o3u_2_CQ1LjRxnh-1">
          <mxGeometry x="731" y="105" width="96" height="40" as="geometry" />
        </mxCell>
        <mxCell id="E969s3RUasVL38DYVkp5-4" value="" style="edgeStyle=orthogonalEdgeStyle;orthogonalLoop=1;jettySize=auto;html=1;" edge="1" parent="O1yb1o3u_2_CQ1LjRxnh-1" source="E969s3RUasVL38DYVkp5-5" target="E969s3RUasVL38DYVkp5-3">
          <mxGeometry relative="1" as="geometry" />
        </mxCell>
        <mxCell id="E969s3RUasVL38DYVkp5-5" value="kw2tag &lt;br&gt;(read excel)" style="whiteSpace=wrap;html=1;dashed=1;fillColor=#b0e3e6;strokeColor=#0e8088;rounded=1;" vertex="1" parent="O1yb1o3u_2_CQ1LjRxnh-1">
          <mxGeometry x="731" y="173.5" width="96" height="40" as="geometry" />
        </mxCell>
        <mxCell id="E969s3RUasVL38DYVkp5-64" value="" style="rounded=0;whiteSpace=wrap;html=1;dashed=1;fillColor=none;" vertex="1" parent="O1yb1o3u_2_CQ1LjRxnh-1">
          <mxGeometry x="677" y="-32" width="328" height="857" as="geometry" />
        </mxCell>
        <mxCell id="E969s3RUasVL38DYVkp5-66" value="data preparation" style="text;html=1;strokeColor=none;fillColor=none;align=center;verticalAlign=middle;whiteSpace=wrap;rounded=0;dashed=1;fontSize=30;" vertex="1" parent="O1yb1o3u_2_CQ1LjRxnh-1">
          <mxGeometry x="727" y="-63" width="249" height="20" as="geometry" />
        </mxCell>
        <mxCell id="E969s3RUasVL38DYVkp5-67" value="train model" style="text;html=1;strokeColor=none;fillColor=none;align=center;verticalAlign=middle;whiteSpace=wrap;rounded=0;dashed=1;fontSize=30;" vertex="1" parent="O1yb1o3u_2_CQ1LjRxnh-1">
          <mxGeometry x="1260" y="-63" width="167" height="20" as="geometry" />
        </mxCell>
      </root>
    </mxGraphModel>
  </diagram>
</mxfile>
